<svg xmlns="http://www.w3.org/2000/svg" viewBox="0 0 1521.5 1638.5"><path d="M1259.1 924c-59.1-144.2-88.7-296.1-88.7-455.8 0-100.6-29.2-180.4-87.8-239.6-58.5-59.1-139-94.8-241.4-107 4.9-11 7.3-22.2 7.3-33.8 0-24.4-8.5-45.1-25.6-62.2S785.1 0 760.7 0s-45.1 8.5-62.2 25.6S673 63.4 673 87.8c0 11.6 2.4 22.8 7.3 33.8-102.4 12.2-182.9 47.9-241.4 107s-87.8 139-87.8 239.6c0 159.7-29.6 311.6-88.7 455.8-59.1 144.1-146.6 265.3-262.4 363.4 0 31.7 11.6 59.1 34.7 82.3 23.2 23.2 50.6 34.7 82.3 34.7h409.6c0 64.6 22.8 119.8 68.6 165.5 45.7 45.7 100.9 68.6 165.5 68.6s119.8-22.9 165.5-68.6 68.6-100.9 68.6-165.5h409.6c31.7 0 59.1-11.6 82.3-34.7 23.2-23.2 34.7-50.6 34.7-82.3-115.7-98.1-203.2-219.3-262.3-363.4zm-498.3 641.4c-44.5 0-82.5-15.7-113.8-47.1-31.4-31.4-47.1-69.4-47.1-113.9 0-9.8 4.9-14.6 14.6-14.6 9.8 0 14.6 4.9 14.6 14.6 0 36 13 66.9 38.9 92.8s56.8 38.9 92.8 38.9c9.8 0 14.6 4.9 14.6 14.6 0 9.8-4.9 14.7-14.6 14.7z"/></svg>