<svg xmlns="http://www.w3.org/2000/svg" viewBox="0 0 1574.4 1435.5"><path d="M115.8 367.6c-46.4 29.3-83.2 72.5-105 123.2-23.8 55.5-7.3 118.5 39.6 151.5l853.7 601.5c182.8 128.8 294.8 183.7 462.9 191.3 65.3 3 128.2-7.9 175.1-62.7 46.9-54.9 37.8-120.1 3.1-169.7l-98.2-140.4c-78.8-112.7-146.7-233.2-203-359.8l-42.7-96.3-59-215.3c-9-32.7-41-52.1-74.3-45L962.9 368l-.5-.7c-15.9-23.2-42-37.2-70.1-38.3-47.8-2-127.9-14-201.2-65.7-97.2-68.5-141.6-157-161.1-212.6-13.1-37.2-52.6-58.6-90.6-47.9-50.8 14.2-99.8 47.6-135.5 83.5-45.9 46.2-85.3 95.7-110.2 128-26.4 34.3-57.2 91.4-63.5 144.3l-14.4 9zM1076 589c-16.2 23-48 28.5-70.9 12.3-23-16.2-28.5-48-12.3-71s48-28.5 71-12.3c22.9 16.2 28.4 48 12.2 71zm70.3 152.7c-16.7 23.7-49.4 29.4-73.2 12.7-23.7-16.7-29.4-49.4-12.7-73.1 16.7-23.7 49.4-29.4 73.1-12.7 23.8 16.7 29.5 49.4 12.8 73.1zm75.7 156.5c-17.2 24.4-51 30.3-75.4 13.1-24.4-17.2-30.3-51-13.1-75.4 17.2-24.4 51-30.3 75.4-13.1 24.4 17.2 30.3 51 13.1 75.4zM148.3 520.8c17.2-24.4 51-30.3 75.4-13.1 11.8 8.3 175.8 123.9 187.5 132.1 24.4 17.2 30.3 51 13.1 75.4-17.2 24.4-51 30.3-75.4 13.1-11.8-8.3-175.8-123.8-187.5-132.1-24.4-17.2-30.3-51-13.1-75.4z"/></svg>