<svg xmlns="http://www.w3.org/2000/svg" viewBox="0 0 1605.8 1602.7"><path d="M804.4 1091.6l471 471c26.7 26.8 59.2 40.1 97.4 40.1s70.7-13.4 97.4-40.1l95.4-95.4c26.8-26.8 40.1-59.2 40.1-97.4s-13.4-70.7-40.1-97.5l-471-471 471-471c26.8-26.7 40.1-59.2 40.1-97.4s-13.4-70.7-40.1-97.4l-95.4-95.4C1443.5 13.4 1411 0 1372.8 0s-70.7 13.4-97.4 40.1l-471 471-471-471C306.6 13.4 274.2 0 236 0s-70.7 13.4-97.4 40.1l-95.4 95.4C16.4 162.2 3 194.7 3 232.9s13.4 70.7 40.1 97.4l471 471-471 471C16.4 1299.1 3 1331.6 3 1369.8s13.4 70.7 40.1 97.4l95.4 95.4c26.7 26.8 59.2 40.1 97.4 40.1s70.7-13.4 97.4-40.1l471.1-471z"/></svg>