<svg xmlns="http://www.w3.org/2000/svg" viewBox="0 0 1364 1169.2"><path d="M1267.3 94.4C1202.9 31.5 1113.8 0 1000.1 0c-31.5 0-63.6 5.5-96.3 16.4-32.7 10.9-63.2 25.6-91.3 44.2-28.2 18.5-52.4 35.9-72.7 52.1-20.3 16.2-39.6 33.5-57.8 51.8-18.3-18.3-37.6-35.5-57.8-51.8-20.3-16.2-44.5-33.6-72.7-52.1s-58.6-33.2-91.3-44.2C427.5 5.5 395.4 0 363.9 0 250.2 0 161.2 31.5 96.7 94.4S0 244.6 0 356.3c0 34 6 69 17.9 105s25.5 66.7 40.7 92.1 32.5 50.1 51.8 74.2 33.4 40.7 42.2 49.9c8.9 9.1 15.9 15.7 20.9 19.8l475 458.2c9.1 9.1 20.3 13.7 33.5 13.7s24.4-4.6 33.5-13.7l474.2-456.7C1305.9 582.6 1364 468.4 1364 356.3c0-111.7-32.2-199-96.7-261.9z"/></svg>