<svg xmlns="http://www.w3.org/2000/svg" viewBox="0 0 1202.5 1543.5"><path d="M1138.1 191.8C1026-9.9 603.1 0 603.1 0 174.6.1 70.8 183.4 70.8 183.4c-176.5 221.3 36.4 551.9 36.4 551.9 44.8 70 42 137.3 42 137.3-72.8 218.5 25.2 425.8 25.2 425.8 151.3 282.9 428.7 245.1 428.7 245.1 325.1 0 408.9-222.7 408.9-222.7 123.3-204.5 39.2-437 39.2-437-5.6-72.8 53.2-151.3 53.2-151.3 199-355.8 33.7-540.7 33.7-540.7zM922.4 606.4s-25.2 39.2-114.9 22.4c0 0-105.8-35.7-204.4-28 0 0-145.8 0-224.2 44.8 0 0-72.8 14-103.7-44.8 0 0-89.6-95.2-39.2-254.9 0 0-8.4-70 151.3-95.2 0 0 288.5-56 504.3 19.6 0 0 75.6 14 92.4 114.9 0-.1 5.6 131.6-61.6 221.2z"/></svg>