<svg xmlns="http://www.w3.org/2000/svg" viewBox="0 0 1566.8 1567"><path d="M1461.8 390.2c-70.1-120-165.1-215.1-285.1-285.1C1056.7 35 925.7 0 783.5 0S510.1 35 390.1 105.1C270 175.1 175 270.2 104.9 390.2 35 510.3-.1 641.4-.1 783.5c0 142.2 35 273.2 105.1 393.3 70.1 120 165.1 215.1 285.2 285.1C510.3 1532 641.3 1567 783.5 1567s273.3-35 393.3-105.1c120-70 215.1-165.1 285.1-285.1 70-120.1 105.1-251.2 105.1-393.3s-35.1-273.2-105.2-393.3zm-221.4 458.6c0 17.7-6.5 33-19.4 45.9s-28.2 19.4-45.9 19.4H914v261.2c0 17.7-6.5 33-19.4 45.9s-28.2 19.4-45.9 19.4H718c-17.7 0-33-6.5-45.9-19.4s-19.4-28.2-19.4-45.9V914.1h-261c-17.7 0-33-6.5-45.9-19.4s-19.4-28.2-19.4-45.9V718.2c0-17.7 6.5-33 19.4-45.9 12.9-12.9 28.2-19.4 45.9-19.4h261.2V391.8c0-17.7 6.5-33 19.4-45.9s28.2-19.4 45.9-19.4h130.6c17.7 0 33 6.5 45.9 19.4s19.4 28.2 19.4 45.9V653h261.2c17.7 0 33 6.5 45.9 19.4 12.9 12.9 19.4 28.2 19.4 45.9v130.5h-.2z"/></svg>