<svg xmlns="http://www.w3.org/2000/svg" viewBox="0 0 1711.7 1632.4"><path d="M1711.7 632.6c0-25.4-19.2-41.1-57.6-47.3l-516.4-75.1-231.4-468C893.3 14.1 876.5 0 855.9 0c-20.6 0-37.4 14.1-50.4 42.2L574 510.2 57.6 585.3C19.2 591.4 0 607.2 0 632.6 0 647 8.6 663.5 25.7 682l374.4 364.1-88.5 514.3c-1.4 9.6-2.1 16.5-2.1 20.6 0 14.4 3.6 26.6 10.8 36.5 7.2 9.9 18 14.9 32.4 14.9 12.3 0 26.1-4.1 41.1-12.3l461.9-242.8 461.9 242.8c14.4 8.2 28.1 12.3 41.1 12.3 13.7 0 24.2-4.9 31.4-14.9 7.2-9.9 10.8-22.1 10.8-36.5 0-8.9-.3-15.8-1-20.6l-88.5-514.3L1684.8 682c18-17.9 26.9-34.3 26.9-49.4z"/></svg>