<svg xmlns="http://www.w3.org/2000/svg" viewBox="0 0 1284.8 1540.7"><path d="M1284.3 1047.3C1227.7 566.1 888 290.1 888 290.1l-49.5-162.7C810.2 49.5 756.3 0 756.3 0H364.4c-35.4 0-77.8 92-77.8 92l7.1 240.6c63.7 99.1 318.4 84.9 318.4 84.9 49.6 0 84.9-92 84.9-92 92 268.9 49.5 573.2 49.5 573.2L697 919.9c-14.1-134.4-198.1-134.4-198.1-134.4-148.6 0-247.7 155.7-247.7 155.7C152.1 856.2 24.7 835 24.7 835c-8.6.5-16.5 1.4-24.7 2.1l187.1 673.6C626.5 1622.3 980 1387 980 1387c28.3-49.5 198.1-120.3 198.1-120.3 120.3-113.3 106.2-219.4 106.2-219.4z"/></svg>