<?xml version="1.0" encoding="utf-8"?><svg xmlns="http://www.w3.org/2000/svg" xmlns:xlink="http://www.w3.org/1999/xlink"><symbol viewBox="0 0 1521.5 1638.5" id="bell"><path d="M1259.1 924c-59.1-144.2-88.7-296.1-88.7-455.8 0-100.6-29.2-180.4-87.8-239.6-58.5-59.1-139-94.8-241.4-107 4.9-11 7.3-22.2 7.3-33.8 0-24.4-8.5-45.1-25.6-62.2S785.1 0 760.7 0s-45.1 8.5-62.2 25.6S673 63.4 673 87.8c0 11.6 2.4 22.8 7.3 33.8-102.4 12.2-182.9 47.9-241.4 107s-87.8 139-87.8 239.6c0 159.7-29.6 311.6-88.7 455.8-59.1 144.1-146.6 265.3-262.4 363.4 0 31.7 11.6 59.1 34.7 82.3 23.2 23.2 50.6 34.7 82.3 34.7h409.6c0 64.6 22.8 119.8 68.6 165.5 45.7 45.7 100.9 68.6 165.5 68.6s119.8-22.9 165.5-68.6 68.6-100.9 68.6-165.5h409.6c31.7 0 59.1-11.6 82.3-34.7 23.2-23.2 34.7-50.6 34.7-82.3-115.7-98.1-203.2-219.3-262.3-363.4zm-498.3 641.4c-44.5 0-82.5-15.7-113.8-47.1-31.4-31.4-47.1-69.4-47.1-113.9 0-9.8 4.9-14.6 14.6-14.6 9.8 0 14.6 4.9 14.6 14.6 0 36 13 66.9 38.9 92.8s56.8 38.9 92.8 38.9c9.8 0 14.6 4.9 14.6 14.6 0 9.8-4.9 14.7-14.6 14.7z"/></symbol><symbol viewBox="0 0 1574.4 1435.5" id="cardio"><path d="M115.8 367.6c-46.4 29.3-83.2 72.5-105 123.2-23.8 55.5-7.3 118.5 39.6 151.5l853.7 601.5c182.8 128.8 294.8 183.7 462.9 191.3 65.3 3 128.2-7.9 175.1-62.7 46.9-54.9 37.8-120.1 3.1-169.7l-98.2-140.4c-78.8-112.7-146.7-233.2-203-359.8l-42.7-96.3-59-215.3c-9-32.7-41-52.1-74.3-45L962.9 368l-.5-.7c-15.9-23.2-42-37.2-70.1-38.3-47.8-2-127.9-14-201.2-65.7-97.2-68.5-141.6-157-161.1-212.6-13.1-37.2-52.6-58.6-90.6-47.9-50.8 14.2-99.8 47.6-135.5 83.5-45.9 46.2-85.3 95.7-110.2 128-26.4 34.3-57.2 91.4-63.5 144.3l-14.4 9zM1076 589c-16.2 23-48 28.5-70.9 12.3-23-16.2-28.5-48-12.3-71s48-28.5 71-12.3c22.9 16.2 28.4 48 12.2 71zm70.3 152.7c-16.7 23.7-49.4 29.4-73.2 12.7-23.7-16.7-29.4-49.4-12.7-73.1 16.7-23.7 49.4-29.4 73.1-12.7 23.8 16.7 29.5 49.4 12.8 73.1zm75.7 156.5c-17.2 24.4-51 30.3-75.4 13.1-24.4-17.2-30.3-51-13.1-75.4 17.2-24.4 51-30.3 75.4-13.1 24.4 17.2 30.3 51 13.1 75.4zM148.3 520.8c17.2-24.4 51-30.3 75.4-13.1 11.8 8.3 175.8 123.9 187.5 132.1 24.4 17.2 30.3 51 13.1 75.4-17.2 24.4-51 30.3-75.4 13.1-11.8-8.3-175.8-123.8-187.5-132.1-24.4-17.2-30.3-51-13.1-75.4z"/></symbol><symbol viewBox="0 0 1521.5 1167.5" id="check"><path d="M1494.9 161.2L1361.2 27.5C1342.9 9.2 1320.6 0 1294.4 0c-26.2 0-48.5 9.2-66.8 27.5L582.9 673.2 294 383.3c-18.3-18.3-40.6-27.5-66.8-27.5s-48.5 9.2-66.8 27.5L26.7 516.9C8.3 535.3-.9 557.5-.9 583.8c0 26.2 9.2 48.5 27.5 66.8l355.8 355.7L516.1 1140c18.3 18.3 40.6 27.5 66.8 27.5 26.2 0 48.5-9.2 66.8-27.5l133.7-133.7 711.5-711.5c18.3-18.3 27.5-40.6 27.5-66.8.1-26.2-9.1-48.5-27.5-66.8z"/></symbol><symbol viewBox="0 0 106.9 65.3" id="chevron"><path d="M104.6 6.8L100 2.2C98.5.7 96.6 0 94.5 0c-2.2 0-4 .7-5.5 2.2L53.4 37.6 17.9 2.2C16.4.7 14.5 0 12.4 0s-4 .7-5.5 2.2L2.3 6.8C.8 8.3 0 10.1 0 12.3s.8 4 2.3 5.4L47.9 63c1.5 1.5 3.3 2.3 5.5 2.3s4-.8 5.5-2.3l45.6-45.3c1.5-1.5 2.3-3.3 2.3-5.4.1-2.1-.7-4-2.2-5.5z"/></symbol><symbol viewBox="0 0 18 18" id="clock"><circle r="1"/><circle cx="1" r="1"/><circle cx="2" r="1"/><circle cx="3" r="1"/><circle cx="4" r="1"/><circle cx="5" r="1"/><circle cx="6" r="1"/><circle cx="7" r="1"/><circle cx="8" r="1"/><circle cx="9" r="1"/><circle cx="10" r="1"/><circle cx="11" r="1"/><circle cx="12" r="1"/><circle cx="13" r="1"/><circle cx="14" r="1"/><circle cx="15" r="1"/><circle cx="16" r="1"/><circle cx="17" r="1"/><circle cy="1" r="1"/><circle cx="1" cy="1" r="1"/><circle cx="2" cy="1" r="1"/><circle cx="3" cy="1" r="1"/><circle cx="4" cy="1" r="1"/><circle cx="5" cy="1" r="1"/><circle cx="6" cy="1" r="1"/><circle cx="7" cy="1" r="1"/><circle cx="8" cy="1" r="1"/><circle cx="9" cy="1" r="1"/><circle cx="10" cy="1" r="1"/><circle cx="11" cy="1" r="1"/><circle cx="12" cy="1" r="1"/><circle cx="13" cy="1" r="1"/><circle cx="14" cy="1" r="1"/><circle cx="15" cy="1" r="1"/><circle cx="16" cy="1" r="1"/><circle cx="17" cy="1" r="1"/><circle cy="2" r="1"/><circle cx="1" cy="2" r="1"/><circle cx="2" cy="2" r="1"/><circle cx="3" cy="2" r="1"/><circle cx="4" cy="2" r="1"/><circle cx="5" cy="2" r="1"/><circle cx="6" cy="2" r="1"/><circle cx="7" cy="2" r="1"/><circle cx="8" cy="2" r="1"/><circle cx="9" cy="2" r="1"/><circle cx="10" cy="2" r="1"/><circle cx="11" cy="2" r="1"/><circle cx="12" cy="2" r="1"/><circle cx="13" cy="2" r="1"/><circle cx="14" cy="2" r="1"/><circle cx="15" cy="2" r="1"/><circle cx="16" cy="2" r="1"/><circle cx="17" cy="2" r="1"/><circle cy="3" r="1"/><circle cx="1" cy="3" r="1"/><circle cx="2" cy="3" r="1"/><circle cx="3" cy="3" r="1"/><circle cx="4" cy="3" r="1"/><circle cx="5" cy="3" r="1"/><circle cx="6" cy="3" r="1"/><circle cx="7" cy="3" r="1"/><circle cx="8" cy="3" r="1"/><circle cx="9" cy="3" r="1"/><circle cx="10" cy="3" r="1"/><circle cx="11" cy="3" r="1"/><circle cx="12" cy="3" r="1"/><circle cx="13" cy="3" r="1"/><circle cx="14" cy="3" r="1"/><circle cx="15" cy="3" r="1"/><circle cx="16" cy="3" r="1"/><circle cx="17" cy="3" r="1"/><circle cy="4" r="1"/><circle cx="1" cy="4" r="1"/><circle cx="2" cy="4" r="1"/><circle cx="3" cy="4" r="1"/><circle cx="4" cy="4" r="1"/><circle cx="5" cy="4" r="1"/><circle cx="6" cy="4" r="1"/><circle cx="7" cy="4" r="1"/><circle cx="8" cy="4" r="1"/><circle cx="9" cy="4" r="1"/><circle cx="10" cy="4" r="1"/><circle cx="11" cy="4" r="1"/><circle cx="12" cy="4" r="1"/><circle cx="13" cy="4" r="1"/><circle cx="14" cy="4" r="1"/><circle cx="15" cy="4" r="1"/><circle cx="16" cy="4" r="1"/><circle cx="17" cy="4" r="1"/><circle cy="5" r="1"/><circle cx="1" cy="5" r="1"/><circle cx="2" cy="5" r="1"/><circle cx="3" cy="5" r="1"/><circle cx="4" cy="5" r="1"/><circle cx="5" cy="5" r="1"/><circle cx="6" cy="5" r="1"/><circle cx="7" cy="5" r="1"/><circle cx="8" cy="5" r="1"/><circle cx="9" cy="5" r="1"/><circle cx="10" cy="5" r="1"/><circle cx="11" cy="5" r="1"/><circle cx="12" cy="5" r="1"/><circle cx="13" cy="5" r="1"/><circle cx="14" cy="5" r="1"/><circle cx="15" cy="5" r="1"/><circle cx="16" cy="5" r="1"/><circle cx="17" cy="5" r="1"/><circle cy="6" r="1"/><circle cx="1" cy="6" r="1"/><circle cx="2" cy="6" r="1"/><circle cx="3" cy="6" r="1"/><circle cx="4" cy="6" r="1"/><circle cx="5" cy="6" r="1"/><circle cx="6" cy="6" r="1"/><circle cx="7" cy="6" r="1"/><circle cx="8" cy="6" r="1"/><circle cx="9" cy="6" r="1"/><circle cx="10" cy="6" r="1"/><circle cx="11" cy="6" r="1"/><circle cx="12" cy="6" r="1"/><circle cx="13" cy="6" r="1"/><circle cx="14" cy="6" r="1"/><circle cx="15" cy="6" r="1"/><circle cx="16" cy="6" r="1"/><circle cx="17" cy="6" r="1"/><circle cy="7" r="1"/><circle cx="1" cy="7" r="1"/><circle cx="2" cy="7" r="1"/><circle cx="3" cy="7" r="1"/><circle cx="4" cy="7" r="1"/><circle cx="5" cy="7" r="1"/><circle cx="6" cy="7" r="1"/><circle cx="7" cy="7" r="1"/><circle cx="8" cy="7" r="1"/><circle cx="9" cy="7" r="1"/><circle cx="10" cy="7" r="1"/><circle cx="11" cy="7" r="1"/><circle cx="12" cy="7" r="1"/><circle cx="13" cy="7" r="1"/><circle cx="14" cy="7" r="1"/><circle cx="15" cy="7" r="1"/><circle cx="16" cy="7" r="1"/><circle cx="17" cy="7" r="1"/><circle cy="8" r="1"/><circle cx="1" cy="8" r="1"/><circle cx="2" cy="8" r="1"/><circle cx="3" cy="8" r="1"/><circle cx="4" cy="8" r="1"/><circle cx="5" cy="8" r="1"/><circle cx="6" cy="8" r="1"/><circle cx="7" cy="8" r="1"/><circle cx="8" cy="8" r="1"/><circle cx="9" cy="8" r="1"/><circle cx="10" cy="8" r="1"/><circle cx="11" cy="8" r="1"/><circle cx="12" cy="8" r="1"/><circle cx="13" cy="8" r="1"/><circle cx="14" cy="8" r="1"/><circle cx="15" cy="8" r="1"/><circle cx="16" cy="8" r="1"/><circle cx="17" cy="8" r="1"/><circle cy="9" r="1"/><circle cx="1" cy="9" r="1"/><circle cx="2" cy="9" r="1"/><circle cx="3" cy="9" r="1"/><circle cx="4" cy="9" r="1"/><circle cx="5" cy="9" r="1"/><circle cx="6" cy="9" r="1"/><circle cx="7" cy="9" r="1"/><circle cx="8" cy="9" r="1"/><circle cx="9" cy="9" r="1"/><circle cx="10" cy="9" r="1"/><circle cx="11" cy="9" r="1"/><circle cx="12" cy="9" r="1"/><circle cx="13" cy="9" r="1"/><circle cx="14" cy="9" r="1"/><circle cx="15" cy="9" r="1"/><circle cx="16" cy="9" r="1"/><circle cx="17" cy="9" r="1"/><circle cy="10" r="1"/><circle cx="1" cy="10" r="1"/><circle cx="2" cy="10" r="1"/><circle cx="3" cy="10" r="1"/><circle cx="4" cy="10" r="1"/><circle cx="5" cy="10" r="1"/><circle cx="6" cy="10" r="1"/><circle cx="7" cy="10" r="1"/><circle cx="8" cy="10" r="1"/><circle cx="9" cy="10" r="1"/><circle cx="10" cy="10" r="1"/><circle cx="11" cy="10" r="1"/><circle cx="12" cy="10" r="1"/><circle cx="13" cy="10" r="1"/><circle cx="14" cy="10" r="1"/><circle cx="15" cy="10" r="1"/><circle cx="16" cy="10" r="1"/><circle cx="17" cy="10" r="1"/><circle cy="11" r="1"/><circle cx="1" cy="11" r="1"/><circle cx="2" cy="11" r="1"/><circle cx="3" cy="11" r="1"/><circle cx="4" cy="11" r="1"/><circle cx="5" cy="11" r="1"/><circle cx="6" cy="11" r="1"/><circle cx="7" cy="11" r="1"/><circle cx="8" cy="11" r="1"/><circle cx="9" cy="11" r="1"/><circle cx="10" cy="11" r="1"/><circle cx="11" cy="11" r="1"/><circle cx="12" cy="11" r="1"/><circle cx="13" cy="11" r="1"/><circle cx="14" cy="11" r="1"/><circle cx="15" cy="11" r="1"/><circle cx="16" cy="11" r="1"/><circle cx="17" cy="11" r="1"/><circle cy="12" r="1"/><circle cx="1" cy="12" r="1"/><circle cx="2" cy="12" r="1"/><circle cx="3" cy="12" r="1"/><circle cx="4" cy="12" r="1"/><circle cx="5" cy="12" r="1"/><circle cx="6" cy="12" r="1"/><circle cx="7" cy="12" r="1"/><circle cx="8" cy="12" r="1"/><circle cx="9" cy="12" r="1"/><circle cx="10" cy="12" r="1"/><circle cx="11" cy="12" r="1"/><circle cx="12" cy="12" r="1"/><circle cx="13" cy="12" r="1"/><circle cx="14" cy="12" r="1"/><circle cx="15" cy="12" r="1"/><circle cx="16" cy="12" r="1"/><circle cx="17" cy="12" r="1"/><circle cy="13" r="1"/><circle cx="1" cy="13" r="1"/><circle cx="2" cy="13" r="1"/><circle cx="3" cy="13" r="1"/><circle cx="4" cy="13" r="1"/><circle cx="5" cy="13" r="1"/><circle cx="6" cy="13" r="1"/><circle cx="7" cy="13" r="1"/><circle cx="8" cy="13" r="1"/><circle cx="9" cy="13" r="1"/><circle cx="10" cy="13" r="1"/><circle cx="11" cy="13" r="1"/><circle cx="12" cy="13" r="1"/><circle cx="13" cy="13" r="1"/><circle cx="14" cy="13" r="1"/><circle cx="15" cy="13" r="1"/><circle cx="16" cy="13" r="1"/><circle cx="17" cy="13" r="1"/><circle cy="14" r="1"/><circle cx="1" cy="14" r="1"/><circle cx="2" cy="14" r="1"/><circle cx="3" cy="14" r="1"/><circle cx="4" cy="14" r="1"/><circle cx="5" cy="14" r="1"/><circle cx="6" cy="14" r="1"/><circle cx="7" cy="14" r="1"/><circle cx="8" cy="14" r="1"/><circle cx="9" cy="14" r="1"/><circle cx="10" cy="14" r="1"/><circle cx="11" cy="14" r="1"/><circle cx="12" cy="14" r="1"/><circle cx="13" cy="14" r="1"/><circle cx="14" cy="14" r="1"/><circle cx="15" cy="14" r="1"/><circle cx="16" cy="14" r="1"/><circle cx="17" cy="14" r="1"/><circle cy="15" r="1"/><circle cx="1" cy="15" r="1"/><circle cx="2" cy="15" r="1"/><circle cx="3" cy="15" r="1"/><circle cx="4" cy="15" r="1"/><circle cx="5" cy="15" r="1"/><circle cx="6" cy="15" r="1"/><circle cx="7" cy="15" r="1"/><circle cx="8" cy="15" r="1"/><circle cx="9" cy="15" r="1"/><circle cx="10" cy="15" r="1"/><circle cx="11" cy="15" r="1"/><circle cx="12" cy="15" r="1"/><circle cx="13" cy="15" r="1"/><circle cx="14" cy="15" r="1"/><circle cx="15" cy="15" r="1"/><circle cx="16" cy="15" r="1"/><circle cx="17" cy="15" r="1"/><circle cy="16" r="1"/><circle cx="1" cy="16" r="1"/><circle cx="2" cy="16" r="1"/><circle cx="3" cy="16" r="1"/><circle cx="4" cy="16" r="1"/><circle cx="5" cy="16" r="1"/><circle cx="6" cy="16" r="1"/><circle cx="7" cy="16" r="1"/><circle cx="8" cy="16" r="1"/><circle cx="9" cy="16" r="1"/><circle cx="10" cy="16" r="1"/><circle cx="11" cy="16" r="1"/><circle cx="12" cy="16" r="1"/><circle cx="13" cy="16" r="1"/><circle cx="14" cy="16" r="1"/><circle cx="15" cy="16" r="1"/><circle cx="16" cy="16" r="1"/><circle cx="17" cy="16" r="1"/><circle cy="17" r="1"/><circle cx="1" cy="17" r="1"/><circle cx="2" cy="17" r="1"/><circle cx="3" cy="17" r="1"/><circle cx="4" cy="17" r="1"/><circle cx="5" cy="17" r="1"/><circle cx="6" cy="17" r="1"/><circle cx="7" cy="17" r="1"/><circle cx="8" cy="17" r="1"/><circle cx="9" cy="17" r="1"/><circle cx="10" cy="17" r="1"/><circle cx="11" cy="17" r="1"/><circle cx="12" cy="17" r="1"/><circle cx="13" cy="17" r="1"/><circle cx="14" cy="17" r="1"/><circle cx="15" cy="17" r="1"/><circle cx="16" cy="17" r="1"/><circle cx="17" cy="17" r="1"/></symbol><symbol viewBox="0 0 1605.8 1602.7" id="cross"><path d="M804.4 1091.6l471 471c26.7 26.8 59.2 40.1 97.4 40.1s70.7-13.4 97.4-40.1l95.4-95.4c26.8-26.8 40.1-59.2 40.1-97.4s-13.4-70.7-40.1-97.5l-471-471 471-471c26.8-26.7 40.1-59.2 40.1-97.4s-13.4-70.7-40.1-97.4l-95.4-95.4C1443.5 13.4 1411 0 1372.8 0s-70.7 13.4-97.4 40.1l-471 471-471-471C306.6 13.4 274.2 0 236 0s-70.7 13.4-97.4 40.1l-95.4 95.4C16.4 162.2 3 194.7 3 232.9s13.4 70.7 40.1 97.4l471 471-471 471C16.4 1299.1 3 1331.6 3 1369.8s13.4 70.7 40.1 97.4l95.4 95.4c26.7 26.8 59.2 40.1 97.4 40.1s70.7-13.4 97.4-40.1l471.1-471z"/></symbol><symbol viewBox="0 0 1364 1169.2" id="health"><path d="M1267.3 94.4C1202.9 31.5 1113.8 0 1000.1 0c-31.5 0-63.6 5.5-96.3 16.4-32.7 10.9-63.2 25.6-91.3 44.2-28.2 18.5-52.4 35.9-72.7 52.1-20.3 16.2-39.6 33.5-57.8 51.8-18.3-18.3-37.6-35.5-57.8-51.8-20.3-16.2-44.5-33.6-72.7-52.1s-58.6-33.2-91.3-44.2C427.5 5.5 395.4 0 363.9 0 250.2 0 161.2 31.5 96.7 94.4S0 244.6 0 356.3c0 34 6 69 17.9 105s25.5 66.7 40.7 92.1 32.5 50.1 51.8 74.2 33.4 40.7 42.2 49.9c8.9 9.1 15.9 15.7 20.9 19.8l475 458.2c9.1 9.1 20.3 13.7 33.5 13.7s24.4-4.6 33.5-13.7l474.2-456.7C1305.9 582.6 1364 468.4 1364 356.3c0-111.7-32.2-199-96.7-261.9z"/></symbol><symbol viewBox="0 0 1202.5 1543.5" id="misc"><path d="M1138.1 191.8C1026-9.9 603.1 0 603.1 0 174.6.1 70.8 183.4 70.8 183.4c-176.5 221.3 36.4 551.9 36.4 551.9 44.8 70 42 137.3 42 137.3-72.8 218.5 25.2 425.8 25.2 425.8 151.3 282.9 428.7 245.1 428.7 245.1 325.1 0 408.9-222.7 408.9-222.7 123.3-204.5 39.2-437 39.2-437-5.6-72.8 53.2-151.3 53.2-151.3 199-355.8 33.7-540.7 33.7-540.7zM922.4 606.4s-25.2 39.2-114.9 22.4c0 0-105.8-35.7-204.4-28 0 0-145.8 0-224.2 44.8 0 0-72.8 14-103.7-44.8 0 0-89.6-95.2-39.2-254.9 0 0-8.4-70 151.3-95.2 0 0 288.5-56 504.3 19.6 0 0 75.6 14 92.4 114.9 0-.1 5.6 131.6-61.6 221.2z"/></symbol><symbol viewBox="0 0 51 41" id="nav"><path d="M47 32.5H4c-2.2 0-4 1.8-4 3.9v.6c0 2.2 1.8 4 4 4h43c2.2 0 4-1.8 4-3.9v-.6c0-2.2-1.8-4-4-4zM47 0H4C1.8 0 0 1.8 0 3.9v.6c0 2.1 1.8 3.9 4 3.9h43c2.2 0 4-1.8 4-3.9v-.6C51 1.8 49.2 0 47 0zm0 16.3H4c-2.2 0-4 1.8-4 3.9v.7c0 2.1 1.8 3.9 4 3.9h43c2.2 0 4-1.8 4-3.9v-.7c0-2.2-1.8-3.9-4-3.9z"/></symbol><symbol viewBox="0 0 1566.8 1567" id="plus"><path d="M1461.8 390.2c-70.1-120-165.1-215.1-285.1-285.1C1056.7 35 925.7 0 783.5 0S510.1 35 390.1 105.1C270 175.1 175 270.2 104.9 390.2 35 510.3-.1 641.4-.1 783.5c0 142.2 35 273.2 105.1 393.3 70.1 120 165.1 215.1 285.2 285.1C510.3 1532 641.3 1567 783.5 1567s273.3-35 393.3-105.1c120-70 215.1-165.1 285.1-285.1 70-120.1 105.1-251.2 105.1-393.3s-35.1-273.2-105.2-393.3zm-221.4 458.6c0 17.7-6.5 33-19.4 45.9s-28.2 19.4-45.9 19.4H914v261.2c0 17.7-6.5 33-19.4 45.9s-28.2 19.4-45.9 19.4H718c-17.7 0-33-6.5-45.9-19.4s-19.4-28.2-19.4-45.9V914.1h-261c-17.7 0-33-6.5-45.9-19.4s-19.4-28.2-19.4-45.9V718.2c0-17.7 6.5-33 19.4-45.9 12.9-12.9 28.2-19.4 45.9-19.4h261.2V391.8c0-17.7 6.5-33 19.4-45.9s28.2-19.4 45.9-19.4h130.6c17.7 0 33 6.5 45.9 19.4s19.4 28.2 19.4 45.9V653h261.2c17.7 0 33 6.5 45.9 19.4 12.9 12.9 19.4 28.2 19.4 45.9v130.5h-.2z"/></symbol><symbol viewBox="0 0 1711.7 1632.4" id="star"><path d="M1711.7 632.6c0-25.4-19.2-41.1-57.6-47.3l-516.4-75.1-231.4-468C893.3 14.1 876.5 0 855.9 0c-20.6 0-37.4 14.1-50.4 42.2L574 510.2 57.6 585.3C19.2 591.4 0 607.2 0 632.6 0 647 8.6 663.5 25.7 682l374.4 364.1-88.5 514.3c-1.4 9.6-2.1 16.5-2.1 20.6 0 14.4 3.6 26.6 10.8 36.5 7.2 9.9 18 14.9 32.4 14.9 12.3 0 26.1-4.1 41.1-12.3l461.9-242.8 461.9 242.8c14.4 8.2 28.1 12.3 41.1 12.3 13.7 0 24.2-4.9 31.4-14.9 7.2-9.9 10.8-22.1 10.8-36.5 0-8.9-.3-15.8-1-20.6l-88.5-514.3L1684.8 682c18-17.9 26.9-34.3 26.9-49.4z"/></symbol><symbol viewBox="0 0 1284.8 1540.7" id="training"><path d="M1284.3 1047.3C1227.7 566.1 888 290.1 888 290.1l-49.5-162.7C810.2 49.5 756.3 0 756.3 0H364.4c-35.4 0-77.8 92-77.8 92l7.1 240.6c63.7 99.1 318.4 84.9 318.4 84.9 49.6 0 84.9-92 84.9-92 92 268.9 49.5 573.2 49.5 573.2L697 919.9c-14.1-134.4-198.1-134.4-198.1-134.4-148.6 0-247.7 155.7-247.7 155.7C152.1 856.2 24.7 835 24.7 835c-8.6.5-16.5 1.4-24.7 2.1l187.1 673.6C626.5 1622.3 980 1387 980 1387c28.3-49.5 198.1-120.3 198.1-120.3 120.3-113.3 106.2-219.4 106.2-219.4z"/></symbol></svg>